HIERARCHY
ROOT Hips
{
   OFFSET 0.00000 0.00000 0.00000
   CHANNELS 6 Xposition Yposition Zposition Zrotation Xrotation Yrotation
   JOINT Spine
   {
      OFFSET 0.000000 10.701450 0.000000
      CHANNELS 3 Zrotation Xrotation Yrotation
      JOINT Spine1
      {
         OFFSET -0.000000 23.091659 0.114894
         CHANNELS 3 Zrotation Xrotation Yrotation
         JOINT HEad
         {
            OFFSET 0.000000 7.860744 0.010206
            CHANNELS 3 Zrotation Xrotation Yrotation
            End Site
            {
               OFFSET -0.261000 11.496780 2.262555
            }
         }
         JOINT LeftShoulder1
         {
            OFFSET 8.091000 -0.326025 -0.198000
            CHANNELS 3 Zrotation Xrotation Yrotation
            JOINT LeftArm
            {
               OFFSET 9.254430 -0.003042 0.289908
               CHANNELS 3 Zrotation Xrotation Yrotation
               JOINT LeftForeArm
               {
                  OFFSET 29.490208 0.089226 -1.281906
                  CHANNELS 3 Zrotation Xrotation Yrotation
                  JOINT LeftHand
                  {
                     OFFSET 24.807870 0.076824 0.919944
                     CHANNELS 3 Zrotation Xrotation Yrotation
                     End Site
                     {
                        OFFSET 15.069871 -0.540000 1.352619
                     }
                  }
               }
            }
         }
         JOINT RightShoulder
         {
            OFFSET -8.091000 -0.326025 -0.198000
            CHANNELS 3 Zrotation Xrotation Yrotation
            JOINT RightArm
            {
               OFFSET -9.254430 -0.003042 0.289908
               CHANNELS 3 Zrotation Xrotation Yrotation
               JOINT RightForeArm
               {
                  OFFSET -29.607386 0.089226 -1.281906
                  CHANNELS 3 Zrotation Xrotation Yrotation
                  JOINT RightHand
                  {
                     OFFSET -24.742889 0.076824 0.919944
                     CHANNELS 3 Zrotation Xrotation Yrotation
                     End Site
                     {
                        OFFSET -14.968080 -0.540000 1.352619
                     }
                  }
               }
            }
         }
      }
   }
   JOINT LeftUpLeg
   {
      OFFSET 8.051219 -7.800363 0.091485
      CHANNELS 3 Zrotation Xrotation Yrotation
      JOINT LeftLeg
      {
         OFFSET 0.000000 -39.980428 1.235430
         CHANNELS 3 Zrotation Xrotation Yrotation
         JOINT LeftFoot
         {
            OFFSET -0.228195 -37.883157 -1.314531
            CHANNELS 3 Zrotation Xrotation Yrotation
            JOINT LeftToes
            {
               OFFSET -0.036000 -3.973581 7.649189
               CHANNELS 3 Zrotation Xrotation Yrotation
               End Site
               {
                  OFFSET 0.072000 -0.042705 8.801811
               }
            }
         }
      }
   }
   JOINT RightUpLeg
   {
      OFFSET -8.051219 -7.800363 0.091485
      CHANNELS 3 Zrotation Xrotation Yrotation
      JOINT RightLeg
      {
         OFFSET 0.000000 -39.980428 1.235430
         CHANNELS 3 Zrotation Xrotation Yrotation
         JOINT RightFoot
         {
            OFFSET 0.228195 -37.883157 -1.314531
            CHANNELS 3 Zrotation Xrotation Yrotation
            JOINT RightToes
            {
               OFFSET 0.036000 -3.973581 7.649189
               CHANNELS 3 Zrotation Xrotation Yrotation
               End Site
               {
                  OFFSET -0.072000 -0.123705 8.801811
               }
            }
         }
      }
   }
}
MOTION
Frames: 18
Frame Time: 0.016670
17.918671 54.933323 -114.699028 2.733699 -9.201180 22.740649 -6.120118 39.116210 3.461775 0.245605 2.318838 -0.576785 1.885050 -9.307127 -14.652564 6.579565 4.628794 -13.695805 -101.500477 -14.014252 -109.425860 9.408244 53.679047 -103.445619 30.210545 -14.438158 -17.906473 15.452656 -0.876593 -1.872602 46.525049 -9.513915 54.482742 -1.561217 24.303932 124.399601 -42.698449 11.409234 -1.104686 21.166888 -64.125839 10.108822 81.326762 81.907854 -113.754246 63.338250 19.910959 -13.008347 -97.437942 -27.020824 5.821410 -32.513131 -24.932123 -14.241674 -82.644702 76.002281 76.280079 -15.525488 20.790852 -10.486595 -5.936330 -50.655644 -6.938365
16.666909 53.350867 -115.221298 2.899360 -9.619003 24.252267 -3.159667 39.710426 1.161550 -0.014337 1.711541 -0.676654 0.452899 -10.230375 -14.619600 5.790822 4.556746 -13.470742 -104.259040 -18.428115 -110.258521 6.409655 54.593309 -104.443469 30.283437 -13.997236 -17.146698 14.195223 -0.382524 -1.133173 46.846516 -9.822137 53.532253 -1.263291 25.234134 123.781196 -42.226412 11.462356 0.065708 21.519520 -65.709992 9.531769 84.208337 81.714341 -118.849021 64.604738 20.148790 -12.789324 -97.707891 -27.218768 5.489148 -33.447925 -26.694200 -8.885225 -85.487433 80.372175 83.526042 -15.993936 21.685149 -10.089077 1.840464 -41.327962 -4.980322
15.392047 51.859335 -115.687206 3.053604 -10.134660 25.529731 -0.460930 40.142910 -1.044022 -0.236612 1.228832 -0.851335 -0.906530 -10.792916 -14.487422 4.886231 4.634011 -13.383122 -106.504683 -21.285316 -111.056519 4.947340 55.718047 -105.276977 30.404481 -13.259818 -16.654822 12.777011 0.192065 -0.428134 46.845822 -9.977944 52.754715 -0.942543 25.980592 123.100745 -41.384301 11.545929 1.007232 22.074357 -67.026374 9.536975 84.793534 81.008899 -121.376450 65.270879 20.445652 -12.654201 -97.664499 -27.391155 5.408315 -33.779158 -27.998761 -2.773880 -91.836647 85.302888 93.240292 -13.350512 21.571961 -10.147740 -5.022570 -39.217778 -11.350644
13.747759 50.243854 -115.902641 3.479896 -10.985461 26.401871 2.106923 40.576870 -2.876649 -0.339907 0.905511 -0.904873 -2.208497 -11.905412 -12.960791 3.627890 4.520705 -13.273524 -110.884959 -26.528702 -111.390577 1.974348 57.724531 -107.362316 31.895156 5.865150 -14.146789 11.373144 0.887328 0.308450 46.699636 -9.891640 51.764043 -0.696043 26.427867 122.556516 -40.112393 11.773549 1.594249 24.404922 -67.326575 10.834794 83.833769 80.861073 -122.605543 65.163522 21.049414 -12.514368 -97.209984 -27.745202 5.873693 -33.626131 -27.904055 3.136081 -110.612277 89.476393 112.668786 -4.808046 20.294661 -10.678269 10.121673 -38.043836 -5.676821
11.966997 48.747524 -115.899580 4.338908 -11.943013 26.581056 4.084994 41.100831 -4.007891 -0.155185 0.765938 -0.595237 -3.523483 -13.413672 -10.166938 2.325175 4.399773 -13.013477 -114.178353 -29.921706 -111.734566 0.871351 59.408705 -109.220168 33.147748 -3.889696 -15.351250 10.385237 1.608373 1.178864 46.696029 -9.321159 50.966489 -0.337856 26.426121 122.318320 -38.946825 12.064816 1.936168 28.013754 -66.736692 12.970993 82.312911 80.975950 -123.444809 64.337493 21.792514 -12.339088 -96.616434 -28.216522 6.496620 -31.705649 -27.293550 7.048131 -138.237988 89.129645 139.841416 -0.760262 18.909445 -10.746568 -1.618794 -41.868472 -11.014186
9.933929 47.360243 -115.646942 5.253479 -13.064542 26.629058 5.206339 42.094213 -5.066255 -0.434924 0.770268 -0.610738 -4.612586 -14.163764 -7.588754 1.207828 4.081035 -12.600184 -116.311865 -32.171093 -112.107426 4.783221 58.866798 -109.571705 31.935297 -3.131273 -15.608814 9.124283 2.019350 2.094869 46.422996 -8.401323 51.032721 -0.484633 26.310430 121.620165 -37.968957 12.368871 2.134782 32.245033 -65.579167 15.462240 80.521216 81.230941 -124.108540 62.727651 22.500458 -12.193012 -95.628714 -28.972894 7.244249 -29.739439 -28.293832 9.982930 -161.979521 85.837849 162.908454 4.786959 18.053310 -10.497620 18.612040 -45.031990 2.290764
7.369912 45.974550 -115.065439 5.840798 -13.488566 26.693694 5.936199 42.513689 -5.838389 -0.504297 -0.071899 -0.709997 -5.732149 -15.442670 -3.989358 0.378655 3.450895 -11.991020 -121.261553 -36.955626 -112.436532 5.270575 60.871568 -112.982565 32.529797 -11.427796 -17.554491 8.175983 2.046746 2.636141 44.791223 -3.997159 53.723935 -1.627364 23.409661 117.638930 -37.226857 12.739634 2.076224 36.335230 -64.284395 16.889285 67.513941 80.018357 -113.006600 59.198254 22.999195 -11.641191 -93.769324 -29.474804 7.262702 -29.142054 -29.938912 12.744842 -174.944599 82.298657 176.451858 9.990277 16.661581 -9.755127 7.112805 -48.463529 -0.214885
4.573947 44.686279 -114.319866 6.731564 -13.658513 26.659465 6.437243 42.128153 -6.219151 -0.686374 -0.435805 -0.774429 -6.698464 -16.459021 -0.752859 -0.730673 3.043824 -11.298297 -125.112318 -40.197077 -112.516240 6.016828 62.597154 -115.653093 32.459504 -9.540949 -17.206701 7.520435 2.427342 2.913562 43.222363 -0.642740 55.378303 -2.534850 21.538955 115.511654 -36.405065 13.170051 1.712218 39.524700 -61.976925 16.105207 46.535510 77.913853 -92.887130 54.429187 23.081439 -10.882926 -91.364203 -29.712102 6.444318 -29.189445 -31.727417 14.955896 -181.956294 78.930124 183.422080 13.437525 16.251604 -9.503429 7.957479 -50.021563 3.507776
1.624631 43.481883 -113.439196 7.690016 -13.796145 26.366403 6.484166 41.416409 -6.260681 -0.876363 -0.572221 -0.836956 -7.585053 -17.152972 2.147560 -1.899028 2.692133 -10.474557 -128.149061 -42.700178 -112.494356 6.533769 64.044163 -117.700224 33.022004 -13.359964 -18.329934 7.108740 2.937314 3.026635 41.842705 2.034169 56.504413 -3.337370 20.315035 114.198707 -35.405915 13.438239 1.353558 42.008443 -59.401069 12.936263 25.083182 76.654421 -71.592533 50.301744 22.931264 -10.038403 -88.355115 -29.765367 5.321516 -29.318423 -33.893472 16.647054 -185.634911 75.435369 186.640356 16.155069 16.502794 -9.569764 4.904065 -52.630934 4.844580
-1.667967 42.447919 -112.380970 8.806866 -13.703099 26.057863 6.271585 40.447561 -5.734433 -0.980477 -0.918676 -0.580669 -9.341547 -17.693233 5.865314 -2.876693 1.945985 -9.639381 -134.404818 -47.498956 -112.734676 5.333277 66.994880 -121.480775 32.994346 -11.492679 -17.761454 7.035889 3.425805 2.959375 38.946592 7.384324 59.647482 -4.545222 16.941490 110.543757 -34.286511 13.457112 1.102423 44.105363 -56.489199 6.920743 1.872547 72.605567 -47.083800 44.582701 22.888367 -9.032754 -84.870005 -28.079049 4.466108 -29.323535 -36.336845 17.904048 -187.707641 71.981820 187.394627 18.349274 17.494138 -10.112297 5.022850 -54.612171 8.349867
-4.938252 41.561202 -111.277102 10.279316 -13.744561 25.716895 5.896403 39.434592 -4.794770 -1.603299 -1.107403 -0.116317 -11.028823 -18.029394 9.196846 -4.079912 1.354715 -8.796977 -139.017203 -50.753766 -112.729875 4.642551 69.069202 -123.226284 32.930009 -13.255315 -18.386202 6.744458 3.926045 2.717481 36.509099 10.775283 61.267555 -5.514740 15.101326 108.612575 -33.420764 13.709475 0.916886 45.059629 -53.292486 -0.279624 -13.364340 67.513756 -29.942395 39.329209 22.978862 -8.009540 -81.191381 -26.149652 4.015172 -29.119965 -38.651743 18.199666 -191.113010 68.113693 189.414710 17.898268 19.319745 -11.371971 3.773171 -57.411783 8.608442
-8.129586 40.907616 -110.101660 11.340333 -13.727182 25.451863 5.245735 38.406902 -3.904960 -1.725147 -1.312686 0.103484 -12.252746 -18.140229 12.096893 -5.033892 0.838085 -8.049726 -141.910499 -53.152676 -112.702561 4.111219 70.755029 -123.819992 32.562753 -12.017125 -18.108235 6.553307 4.473899 2.509352 34.688137 13.221411 62.239518 -6.317329 14.047962 107.526486 -32.530398 13.737549 1.140790 45.778704 -49.550328 -8.356257 -22.129958 60.773404 -17.574970 34.125261 23.825325 -6.754453 -70.330676 -14.691008 15.605075 -29.277500 -41.074835 17.911664 -191.873947 64.575573 189.137651 17.855600 20.713624 -11.959568 3.099901 -59.254903 10.589051
-11.489762 40.690364 -108.831795 12.319957 -13.829651 24.904123 4.121640 37.340292 -2.798248 -1.857693 -1.855180 0.366146 -14.032520 -17.845536 15.512329 -5.823488 0.497322 -7.321120 -143.085237 -55.007721 -112.006442 2.223064 69.480373 -118.573477 28.783513 -14.941222 -21.729217 6.025404 4.526177 2.798324 32.675604 14.930857 63.346788 -7.009259 13.694003 107.002468 -15.939822 3.072177 6.846643 46.096233 -45.651485 -16.247120 -26.795438 52.507431 -7.513945 28.464327 24.551332 -5.324648 -70.917403 -15.477600 9.761819 -29.186105 -43.430041 16.616752 -192.079645 61.381271 187.503432 18.320533 21.544835 -11.995900 25.065490 -58.075350 41.796359
-14.708668 40.663580 -107.587412 13.301847 -13.522753 24.427765 3.320728 36.174468 -1.498609 -1.980496 -2.037463 0.687183 -15.563793 -17.609162 18.527742 -6.837339 0.375161 -6.344353 -143.943423 -56.610664 -110.688960 1.618413 69.172966 -116.828132 26.606923 -15.067399 -23.421823 5.937497 5.101005 2.379133 31.361661 16.144621 63.533101 -7.111368 13.014709 106.547925 -25.035920 7.046238 4.309378 46.282236 -40.965600 -23.194253 -27.189783 44.416119 -0.963227 23.112843 25.185800 -3.420957 -68.938028 3.563677 24.416089 -29.466891 -45.228560 14.954154 -191.907128 59.926427 184.930077 18.137397 22.412653 -11.868593 11.922209 -60.627935 27.630747
-17.758316 40.869154 -106.363724 14.217349 -13.101124 23.852190 2.339390 34.757832 -0.155875 -2.078611 -2.347653 0.910913 -16.888635 -17.227276 21.160013 -7.712502 0.322861 -5.915663 -144.582838 -57.747269 -109.163881 1.467833 69.464301 -116.778627 25.740188 -15.584465 -24.623182 6.120083 5.816058 2.083385 30.122818 17.530403 63.996475 -7.277558 12.762311 106.366925 -19.327144 5.585286 6.401524 46.124640 -35.860846 -28.969141 -25.258142 36.520929 3.372477 17.756400 25.868988 -1.484283 -63.530028 -1.572916 16.065906 -29.468131 -46.712265 12.769684 -191.741264 59.114440 181.382804 18.013133 22.799684 -11.631441 16.139906 -60.064438 35.701317
-20.828194 41.453742 -105.129593 15.187293 -12.497905 23.397054 0.367676 34.139758 2.564432 -2.196416 -2.410644 1.247878 -17.778071 -17.406657 22.339334 -7.208598 -0.332206 -6.036939 -145.065199 -58.604253 -107.411767 1.542580 69.995977 -117.523787 25.497407 -14.807147 -24.841511 7.244893 5.385205 0.962534 29.256094 18.346344 64.211647 -7.730401 15.622488 110.318108 -28.374047 10.736991 2.270110 46.030513 -30.988671 -32.607070 -23.267413 29.187376 8.956132 13.573190 26.397134 0.749615 -59.566080 6.116457 19.102197 -29.116492 -47.442330 10.589974 -191.671815 59.504519 176.891914 18.022077 22.851400 -11.434836 12.283683 -60.852491 33.076298
-23.703789 42.234592 -103.933190 16.161496 -12.005733 23.387543 -2.352384 34.123321 6.240742 -2.175903 -2.412813 1.426668 -18.338643 -17.851989 22.398176 -5.737539 -1.443517 -6.928189 -145.559937 -59.018490 -105.650841 1.646980 70.650575 -118.552618 25.661434 -14.785963 -24.907900 8.860781 4.136991 -0.654378 28.179436 19.079929 64.557705 -7.909923 17.076356 112.236981 -26.702175 11.241154 1.447975 45.630329 -26.858781 -33.919522 -20.704047 24.022790 15.178171 0.648823 27.060216 3.591720 -41.944106 7.171678 14.108991 -28.228047 -47.307970 8.500293 -191.520430 58.500884 172.251593 17.985099 22.913283 -11.225031 13.306889 -62.528968 36.734755
-26.394608 43.184366 -102.746905 17.289181 -11.461873 23.732532 -4.680070 33.623566 9.416369 -2.092343 -2.409176 1.456178 -19.073153 -17.854256 22.545742 -4.415334 -1.995624 -7.645375 -145.922866 -59.098533 -103.946197 1.940680 71.389267 -119.318132 25.994035 -14.170567 -24.447537 10.146641 3.300445 -2.289495 27.210456 19.703943 64.867420 -7.849601 17.565408 112.842423 -31.035703 13.595398 0.372306 45.261007 -23.626429 -33.243200 -18.393735 19.689412 20.970375 -12.144058 26.713123 6.429617 -24.690835 12.060132 12.004105 -27.153224 -46.148620 6.514698 -191.665271 57.696561 167.735745 18.083537 22.803954 -10.965709 12.788284 -65.099851 38.267996
